<svg xmlns="http://www.w3.org/2000/svg" width="17.458" height="18.471" viewBox="0 0 17.458 18.471">
  <g id="button-arrow" transform="translate(17.458) rotate(90)">
    <g id="g1053" transform="translate(0 0)">
      <g id="g946" transform="translate(0 7.388)">
        <path id="path886-6" d="M1.146,7.967a2.4,2.4,0,0,1-.445-.3A2.037,2.037,0,0,1,.258,7.1a2.2,2.2,0,0,1-.23-.751A3.26,3.26,0,0,1,.068,5.267,8.7,8.7,0,0,1,.525,3.774a12.3,12.3,0,0,1,.64-1.332c.231-.426.48-.861.671-1.186s.324-.542.447-.723A2.709,2.709,0,0,1,2.605.122.373.373,0,0,1,2.83,0a.436.436,0,0,1,.2.026.578.578,0,0,1,.187.113A1.9,1.9,0,0,1,3.426.4c.112.15.3.394.491.684s.4.626.586.941.367.608.531.9a7.615,7.615,0,0,1,.5,1.013A7.838,7.838,0,0,1,6,5.483,2.519,2.519,0,0,1,5.928,6.7a1.764,1.764,0,0,1-.537.8,2.967,2.967,0,0,1-1.012.577,4.174,4.174,0,0,1-1.241.173A8.128,8.128,0,0,1,1.96,8.187a3.738,3.738,0,0,1-.621-.139.7.7,0,0,1-.193-.081Z" transform="translate(4.173 10.07) rotate(-133.679)" fill="#bdf0ed"/>
        <path id="path886-6-5" d="M1.146.287A2.4,2.4,0,0,0,.7.586a2.037,2.037,0,0,0-.444.569,2.2,2.2,0,0,0-.23.751A3.26,3.26,0,0,0,.068,2.987,8.7,8.7,0,0,0,.525,4.48a12.3,12.3,0,0,0,.64,1.332c.231.426.48.861.671,1.186s.324.542.447.723a2.709,2.709,0,0,0,.323.411.373.373,0,0,0,.225.119.436.436,0,0,0,.2-.026.578.578,0,0,0,.187-.113,1.9,1.9,0,0,0,.206-.256c.112-.15.3-.394.491-.684s.4-.626.586-.941.367-.608.531-.9a7.615,7.615,0,0,0,.5-1.013A7.838,7.838,0,0,0,6,2.771a2.519,2.519,0,0,0-.073-1.219,1.764,1.764,0,0,0-.537-.8A2.967,2.967,0,0,0,4.379.174,4.174,4.174,0,0,0,3.138,0,8.128,8.128,0,0,0,1.96.067a3.737,3.737,0,0,0-.621.139.7.7,0,0,0-.193.081Z" transform="translate(8.328 4.37) rotate(-46.321)" fill="#bdf0ed"/>
      </g>
      <path id="path886" d="M1.707,11.61a3.42,3.42,0,0,1-.69-.423A2.682,2.682,0,0,1,.4,10.471a2.934,2.934,0,0,1-.346-1,4.5,4.5,0,0,1,0-1.4A12.077,12.077,0,0,1,.521,6.1a15.471,15.471,0,0,1,.74-1.826c.281-.6.6-1.224.872-1.74s.516-.922.755-1.323a10.376,10.376,0,0,1,.641-1c.164-.2.252-.21.333-.216a.27.27,0,0,1,.251.084A3.622,3.622,0,0,1,4.479.63c.157.256.358.574.58.943s.465.788.7,1.233.461.914.65,1.323.339.757.48,1.113.27.721.419,1.2a8.716,8.716,0,0,1,.377,1.685,5.2,5.2,0,0,1-.107,1.715,2.261,2.261,0,0,1-.635,1.128,3.257,3.257,0,0,1-1.245.763,5.514,5.514,0,0,1-1.6.205,10.561,10.561,0,0,1-1.524-.059,2.635,2.635,0,0,1-.868-.27Z" transform="translate(5.379 0)" fill="#fff"/>
    </g>
  </g>
</svg>
